<svg xmlns="http://www.w3.org/2000/svg" version="1.1" xmlns:xlink="http://www.w3.org/1999/xlink" 
     width="218" height="218" viewBox="0 0 218 218">
        <g>
            <path d="M0 108.725c0-60.047 48.678-108.725 108.725-108.725 60.047 0 108.725 48.678 108.725 108.725 0 60.047-48.678 108.725-108.725 108.725-60.047 0-108.725-48.678-108.725-108.725zM108.725 209.397c55.599 0 100.671-45.072 100.672-100.672 0-55.599-45.072-100.671-100.672-100.671-55.599 0-100.671 45.072-100.671 100.671 0 55.599 45.072 100.671 100.671 100.672z"
                  fill="#ffbf5d"
                  stroke="transparent"></path>
        </g>
        <g transform="matrix(1,0,0,1,45.80612280921951,72.2388870842846)">
            <g>
                <svg xmlns="http://www.w3.org/2000/svg" xmlns:xlink="http://www.w3.org/1999/xlink" version="1.2" baseProfile="tiny" x="0" y="0" viewBox="0.3760410814769347 19.508142522676582 100.00106050010163 57.98987751725862" xml:space="preserve" id="dxe-0" width="125.83813507633006" height="72.97260652619988" class="icon-dxe-0" data-fill-palette-color="accent"><path fill="#ffbf5d" d="M96.897 37.513A3.479 3.479 0 1 0 93.419 34.034C93.419 34.456 93.498 34.859 93.636 35.234L83.483 43.883 70.619 36.316C70.692 36.019 70.735 35.709 70.735 35.389A3.88 3.88 0 0 0 66.857 31.511 3.85 3.85 0 0 0 64.543 32.283L52.92 23.054A3 3 0 0 0 53.006 22.37 2.86 2.86 0 1 0 48.008 24.268L42.173 36.756A4.7 4.7 0 0 0 41.373 36.682C40.513 36.682 39.711 36.921 39.022 37.329L23.584 30.414C23.62 30.189 23.644 29.96 23.644 29.725A4.309 4.309 0 1 0 22.681 32.438L37.363 39.014A4.6 4.6 0 0 0 36.756 41.298C36.756 42.15 37.049 42.903 37.45 43.588L29.217 51.825A6.85 6.85 0 0 0 25.214 50.531C22.572 50.531 20.299 52.032 19.132 54.215L19.036 54.183 19.031 54.218 7.553 49.002A3.6 3.6 0 1 0 3.977 52.194 3.58 3.58 0 0 0 6.634 51.017L18.357 56.346C18.352 56.359 18.348 56.371 18.342 56.383L18.398 56.402C18.344 56.75 18.29 57.096 18.29 57.457A6.9 6.9 0 0 0 20.405 62.432L20.388 62.445 20.4 62.459 14.427 71.261A2.677 2.677 0 1 0 16.247 72.525L21.611 64.621 22.321 63.744A6.9 6.9 0 0 0 25.215 64.385 6.9 6.9 0 0 0 30.098 62.369L37.091 67.36C36.892 67.874 36.757 68.42 36.757 69.001A4.614 4.614 0 0 0 45.845 70.136L61.761 65.213A5.79 5.79 0 0 0 66.86 68.263 5.76 5.76 0 0 0 70.263 67.149L77.383 73.76A3.14 3.14 0 1 0 80.464 71.218 3.12 3.12 0 0 0 78.581 71.849L71.77 65.526C72.322 64.639 72.663 63.596 72.663 62.476 72.663 59.661 71.002 57.316 68.002 56.799V39.104C69.002 38.932 69.084 38.626 69.515 38.226L82.847 46.074 94.026 61.729C93.934 61.959 93.88 62.21 93.88 62.474A2.035 2.035 0 1 0 97.952 62.474 2.04 2.04 0 0 0 95.914 60.437C95.884 60.437 95.854 60.44 95.824 60.442L85.094 45.422 95.025 36.963C95.565 37.31 96.207 37.513 96.897 37.513M61.07 62.474C61.07 62.684 61.083 62.89 61.105 63.094L45.83 67.818A4.61 4.61 0 0 0 41.372 64.383C40.249 64.383 39.258 64.834 38.459 65.496L31.421 60.474C31.868 59.554 32.138 58.544 32.138 57.457A6.88 6.88 0 0 0 30.848 53.458L39.081 45.221C39.767 45.622 40.519 45.915 41.372 45.915A4.6 4.6 0 0 0 45.269 43.768L62.491 58.682A5.77 5.77 0 0 0 61.07 62.474M66 56.797C65 56.897 64.865 57.07 64.404 57.299L46.044 41.453C46.046 41.401 46.021 41.351 46.021 41.299A4.62 4.62 0 0 0 44.215 37.653L50.014 25.225C50.06 25.227 50.102 25.232 50.148 25.232 50.678 25.232 51.171 25.085 51.597 24.833L63.218 34.062C63.067 34.477 63.105 34.923 63.105 35.39 63.105 37.147 64 38.628 66 39.105z" data-fill-palette-color="accent"></path></svg>
            </g>
        </g>
</svg>