<svg xmlns="http://www.w3.org/2000/svg" version="1.1" xmlns:xlink="http://www.w3.org/1999/xlink" xmlns:svgjs="http://svgjs.dev/svgjs" width="1500" height="496" viewBox="0 0 1500 496"><g transform="matrix(1,0,0,1,-0.9090909090911055,0.5288551675644726)"><svg viewBox="0 0 396 131" data-background-color="#ffffff" preserveAspectRatio="xMidYMid meet" height="496" width="1500" xmlns="http://www.w3.org/2000/svg" xmlns:xlink="http://www.w3.org/1999/xlink"><g id="tight-bounds" transform="matrix(1,0,0,1,0.24000000000003752,-0.13967747369142103)"><svg viewBox="0 0 395.5199999999999 131.2793549473828" height="131.2793549473828" width="395.5199999999999"><g><svg viewBox="0 0 655.1370899625956 217.45038069476908" height="131.2793549473828" width="395.5199999999999"><g transform="matrix(1,0,0,1,0,64.07144614231228)"><svg viewBox="0 0 395.5199999999999 89.30748841014453" height="89.30748841014453" width="395.5199999999999"><g id="textblocktransform"><svg viewBox="0 0 395.5199999999999 89.30748841014453" height="89.30748841014453" width="395.5199999999999" id="textblock"><g><svg viewBox="0 0 395.5199999999999 89.30748841014453" height="89.30748841014453" width="395.5199999999999"><g transform="matrix(1,0,0,1,0,0)"><svg width="395.5199999999999" viewBox="3 -32.55 183.34 41.4" height="89.30748841014453" data-palette-color="#5d9dff"><g class="wordmark-text-0" data-fill-palette-color="primary" id="text-0"><path d="M16.85-0.45L3-0.45 3-32.1 16.85-32.1Q21-32.1 23.8-31.43 26.6-30.75 28.3-29.05 30-27.35 30.75-24.33 31.5-21.3 31.5-16.55L31.5-16.55Q31.5-11.6 30.75-8.45 30-5.3 28.3-3.55 26.6-1.8 23.8-1.13 21-0.45 16.85-0.45L16.85-0.45ZM15.7-25.35L15.7-25.35 11-25.35 11-7.2 15.7-7.2Q18.6-7.2 20.28-7.85 21.95-8.5 22.68-10.5 23.4-12.5 23.4-16.55L23.4-16.55Q23.4-20.4 22.68-22.28 21.95-24.15 20.28-24.75 18.6-25.35 15.7-25.35ZM39.3 8.85L39.3 8.75 43.15-0.4 33.5-24.7 33.5-24.8 42.45-24.8Q43.85-20.85 45.07-16.85 46.3-12.85 47.05-8.65L47.05-8.65 47.15-8.65Q47.9-12.8 49.07-16.8 50.25-20.8 51.75-24.8L51.75-24.8 60.35-24.8 60.35-24.65 47.5 8.85 39.3 8.85ZM71.34-13L71.34-0.45 63.35-0.45 63.35-24.8 70.95-24.8 71.34-20.35 71.5-20.35Q72.2-22.6 74-23.83 75.8-25.05 79-25.05L79-25.05Q83.34-25.05 85.42-22.6 87.5-20.15 87.5-14.1L87.5-14.1 87.5-0.45 79.5-0.45 79.45-12.55Q79.45-15.35 78.59-16.55 77.75-17.75 75.4-17.75L75.4-17.75Q73.2-17.75 72.3-16.68 71.4-15.6 71.34-13L71.34-13ZM106.84-0.45L92.99-0.45 92.99-32.1 106.84-32.1Q110.99-32.1 113.79-31.43 116.59-30.75 118.29-29.05 119.99-27.35 120.74-24.33 121.49-21.3 121.49-16.55L121.49-16.55Q121.49-11.6 120.74-8.45 119.99-5.3 118.29-3.55 116.59-1.8 113.79-1.13 110.99-0.45 106.84-0.45L106.84-0.45ZM105.69-25.35L105.69-25.35 100.99-25.35 100.99-7.2 105.69-7.2Q108.59-7.2 110.27-7.85 111.94-8.5 112.67-10.5 113.39-12.5 113.39-16.55L113.39-16.55Q113.39-20.4 112.67-22.28 111.94-24.15 110.27-24.75 108.59-25.35 105.69-25.35ZM146.99-19.4L146.99-32.1 154.99-32.1 154.99-0.45 147.04-0.45 138.04-13.85Q136.99-15.45 136.29-16.55 135.59-17.65 134.99-18.75 134.39-19.85 133.64-21.35L133.64-21.35 133.49-21.15Q134.19-18.75 134.34-16.68 134.49-14.6 134.49-12.65L134.49-12.65 134.49-0.45 126.49-0.45 126.49-32.1 134.44-32.1 143.44-18.7Q144.49-17.15 145.19-16.03 145.89-14.9 146.49-13.8 147.09-12.7 147.84-11.2L147.84-11.2 147.99-11.4Q147.49-13.5 147.24-15.48 146.99-17.45 146.99-19.4L146.99-19.4ZM159.99-8.45L160.19-8.6Q162.39-7.85 165.01-7.43 167.64-7 170.24-7L170.24-7Q173.79-7 175.51-7.33 177.24-7.65 177.79-8.35 178.34-9.05 178.34-10.15L178.34-10.15Q178.34-11.1 177.94-11.65 177.54-12.2 176.39-12.53 175.24-12.85 172.99-13.05L172.99-13.05 169.69-13.35Q165.99-13.7 163.86-14.9 161.74-16.1 160.86-18.13 159.99-20.15 159.99-23L159.99-23Q159.99-26.4 161.36-28.5 162.74-30.6 165.84-31.58 168.94-32.55 174.09-32.55L174.09-32.55Q180.79-32.55 185.14-30.8L185.14-30.8 184.99-24 184.84-23.8Q179.89-25.55 174.49-25.55L174.49-25.55Q171.89-25.55 170.49-25.28 169.09-25 168.54-24.4 167.99-23.8 167.99-22.7L167.99-22.7Q167.99-21.6 168.36-21.05 168.74-20.5 169.89-20.23 171.04-19.95 173.24-19.7L173.24-19.7 176.39-19.35Q180.39-18.9 182.54-17.75 184.69-16.6 185.51-14.68 186.34-12.75 186.34-10L186.34-10Q186.34-6.65 184.91-4.42 183.49-2.2 180.29-1.1 177.09 0 171.74 0L171.74 0Q168.24 0 165.44-0.38 162.64-0.75 159.99-1.4L159.99-1.4 159.99-8.45Z" fill="#5d9dff" data-fill-palette-color="primary"></path></g></svg></g></svg></g></svg></g></svg></g><g transform="matrix(1,0,0,1,437.6867092678265,0)"><svg viewBox="0 0 217.45038069476908 217.45038069476908" height="217.45038069476908" width="217.45038069476908"><g><svg></svg></g><g id="icon-0"><svg viewBox="0 0 217.45038069476908 217.45038069476908" height="217.45038069476908" width="217.45038069476908"><g><path d="M0 108.725c0-60.047 48.678-108.725 108.725-108.725 60.047 0 108.725 48.678 108.725 108.725 0 60.047-48.678 108.725-108.725 108.725-60.047 0-108.725-48.678-108.725-108.725zM108.725 209.397c55.599 0 100.671-45.072 100.672-100.672 0-55.599-45.072-100.671-100.672-100.671-55.599 0-100.671 45.072-100.671 100.671 0 55.599 45.072 100.671 100.671 100.672z" data-fill-palette-color="accent" fill="#ffbf5d" stroke="transparent"></path></g><g transform="matrix(1,0,0,1,45.80612280921951,72.2388870842846)"><svg viewBox="0 0 125.83813507633006 72.97260652619988" height="72.97260652619988" width="125.83813507633006"><g><svg xmlns="http://www.w3.org/2000/svg" xmlns:xlink="http://www.w3.org/1999/xlink" version="1.2" baseProfile="tiny" x="0" y="0" viewBox="0.3760410814769347 19.508142522676582 100.00106050010163 57.98987751725862" xml:space="preserve" id="dxe-0" width="125.83813507633006" height="72.97260652619988" class="icon-dxe-0" data-fill-palette-color="accent"><path fill="#ffbf5d" d="M96.897 37.513A3.479 3.479 0 1 0 93.419 34.034C93.419 34.456 93.498 34.859 93.636 35.234L83.483 43.883 70.619 36.316C70.692 36.019 70.735 35.709 70.735 35.389A3.88 3.88 0 0 0 66.857 31.511 3.85 3.85 0 0 0 64.543 32.283L52.92 23.054A3 3 0 0 0 53.006 22.37 2.86 2.86 0 1 0 48.008 24.268L42.173 36.756A4.7 4.7 0 0 0 41.373 36.682C40.513 36.682 39.711 36.921 39.022 37.329L23.584 30.414C23.62 30.189 23.644 29.96 23.644 29.725A4.309 4.309 0 1 0 22.681 32.438L37.363 39.014A4.6 4.6 0 0 0 36.756 41.298C36.756 42.15 37.049 42.903 37.45 43.588L29.217 51.825A6.85 6.85 0 0 0 25.214 50.531C22.572 50.531 20.299 52.032 19.132 54.215L19.036 54.183 19.031 54.218 7.553 49.002A3.6 3.6 0 1 0 3.977 52.194 3.58 3.58 0 0 0 6.634 51.017L18.357 56.346C18.352 56.359 18.348 56.371 18.342 56.383L18.398 56.402C18.344 56.75 18.29 57.096 18.29 57.457A6.9 6.9 0 0 0 20.405 62.432L20.388 62.445 20.4 62.459 14.427 71.261A2.677 2.677 0 1 0 16.247 72.525L21.611 64.621 22.321 63.744A6.9 6.9 0 0 0 25.215 64.385 6.9 6.9 0 0 0 30.098 62.369L37.091 67.36C36.892 67.874 36.757 68.42 36.757 69.001A4.614 4.614 0 0 0 45.845 70.136L61.761 65.213A5.79 5.79 0 0 0 66.86 68.263 5.76 5.76 0 0 0 70.263 67.149L77.383 73.76A3.14 3.14 0 1 0 80.464 71.218 3.12 3.12 0 0 0 78.581 71.849L71.77 65.526C72.322 64.639 72.663 63.596 72.663 62.476 72.663 59.661 71.002 57.316 68.002 56.799V39.104C69.002 38.932 69.084 38.626 69.515 38.226L82.847 46.074 94.026 61.729C93.934 61.959 93.88 62.21 93.88 62.474A2.035 2.035 0 1 0 97.952 62.474 2.04 2.04 0 0 0 95.914 60.437C95.884 60.437 95.854 60.44 95.824 60.442L85.094 45.422 95.025 36.963C95.565 37.31 96.207 37.513 96.897 37.513M61.07 62.474C61.07 62.684 61.083 62.89 61.105 63.094L45.83 67.818A4.61 4.61 0 0 0 41.372 64.383C40.249 64.383 39.258 64.834 38.459 65.496L31.421 60.474C31.868 59.554 32.138 58.544 32.138 57.457A6.88 6.88 0 0 0 30.848 53.458L39.081 45.221C39.767 45.622 40.519 45.915 41.372 45.915A4.6 4.6 0 0 0 45.269 43.768L62.491 58.682A5.77 5.77 0 0 0 61.07 62.474M66 56.797C65 56.897 64.865 57.07 64.404 57.299L46.044 41.453C46.046 41.401 46.021 41.351 46.021 41.299A4.62 4.62 0 0 0 44.215 37.653L50.014 25.225C50.06 25.227 50.102 25.232 50.148 25.232 50.678 25.232 51.171 25.085 51.597 24.833L63.218 34.062C63.067 34.477 63.105 34.923 63.105 35.39 63.105 37.147 64 38.628 66 39.105z" data-fill-palette-color="accent"></path></svg></g></svg></g></svg></g></svg></g></svg></g><defs></defs></svg><rect width="395.5199999999999" height="131.2793549473828" fill="none" stroke="none" visibility="hidden"></rect></g></svg></g></svg>